<?xml version="1.0" standalone="no"?>
<!DOCTYPE svg PUBLIC "-//W3C//DTD SVG 20010904//EN"
 "http://www.w3.org/TR/2001/REC-SVG-20010904/DTD/svg10.dtd">
<svg version="1.0" xmlns="http://www.w3.org/2000/svg"
 width="410.000000pt" height="410.000000pt" viewBox="0 0 410.000000 410.000000"
 preserveAspectRatio="xMidYMid meet">
<metadata>
Created by potrace 1.11, written by Peter Selinger 2001-2013
</metadata>
<g transform="translate(0.000000,410.000000) scale(0.100000,-0.100000)"
fill="#000000" stroke="none">
<path d="M0 2354 l0 -1745 23 7 c119 38 320 145 422 226 5 4 24 18 40 32 58
46 191 128 251 156 66 30 137 51 329 100 66 16 139 35 163 42 l42 12 0 232 0
232 -49 -21 c-45 -18 -54 -19 -93 -8 -51 16 -109 74 -140 141 -33 72 -86 242
-99 315 -15 86 -7 240 14 280 33 65 87 100 143 93 40 -4 38 -32 -1 -36 -58 -5
-84 -23 -107 -71 -63 -130 19 -521 136 -646 46 -49 86 -56 154 -25 42 19 42
19 42 73 0 54 27 258 36 266 2 3 9 0 16 -7 8 -8 8 -39 -2 -119 -8 -72 -11
-222 -8 -448 3 -335 3 -341 27 -388 19 -40 136 -215 168 -252 5 -5 22 -28 38
-50 16 -22 43 -56 60 -76 16 -20 48 -59 69 -85 88 -109 230 -239 296 -271 158
-77 369 -64 498 31 97 71 250 247 430 494 9 13 41 55 70 93 48 62 117 194 137
259 4 14 35 97 70 185 61 155 89 236 117 339 7 27 19 51 27 54 23 8 6 -90 -38
-213 -40 -114 -75 -206 -91 -240 -5 -11 -16 -37 -25 -59 -17 -43 -23 -33 71
-115 170 -148 236 -179 470 -221 145 -26 334 -69 378 -86 15 -6 16 131 16
1630 l0 1636 -2050 0 -2050 0 0 -1746z m2343 1489 c16 -16 -19 -33 -67 -33
-79 -1 -174 -17 -211 -37 -19 -10 -58 -41 -88 -70 -58 -56 -132 -87 -148 -62
-11 18 -2 29 22 29 31 0 58 18 125 79 69 65 109 81 234 91 127 11 126 11 133
3z m-393 -48 c0 -15 -9 -17 -145 -35 -135 -19 -224 -58 -290 -127 -39 -40 -65
-49 -65 -23 0 26 106 110 173 138 116 48 327 79 327 47z m905 -6 c94 -17 245
-74 320 -121 102 -65 328 -282 391 -375 19 -29 47 -96 67 -163 19 -63 42 -132
51 -152 12 -27 13 -39 4 -44 -25 -16 -67 77 -98 218 -19 89 -71 161 -222 310
-116 115 -229 191 -353 241 -98 40 -145 52 -247 62 -62 7 -81 18 -62 37 6 7
64 2 149 -13z m-397 -31 c3 -14 -4 -18 -30 -18 -58 0 -103 -41 -145 -130 -35
-73 -63 -102 -63 -65 0 23 46 121 75 159 48 63 155 98 163 54z m178 -123 c57
-29 100 -81 82 -102 -8 -10 -19 -4 -52 31 -34 36 -51 46 -98 56 -38 7 -58 16
-58 26 0 23 70 17 126 -11z m-896 -137 c-1 -7 -51 -65 -112 -128 -61 -63 -129
-140 -152 -170 -22 -30 -43 -57 -47 -60 -5 -4 -36 -52 -77 -115 -27 -44 -94
-192 -110 -244 -13 -45 -16 -101 -17 -281 0 -206 -1 -225 -17 -228 -16 -3 -18
8 -20 120 -7 351 15 456 142 663 70 115 141 203 299 367 80 83 112 105 111 76z
m283 -12 c7 -18 -41 -92 -83 -129 -38 -34 -112 -82 -208 -134 -99 -54 -181
-128 -212 -191 -25 -51 -50 -68 -50 -34 0 60 107 177 216 238 183 101 263 165
303 242 13 25 26 28 34 8z m-545 -20 c-2 -7 -31 -37 -66 -65 -184 -153 -296
-404 -322 -725 -5 -60 -14 -114 -19 -119 -46 -46 -9 290 51 467 25 76 69 164
116 236 38 57 149 175 192 204 30 20 53 21 48 2z m1639 -66 c208 -107 304
-179 377 -285 42 -60 59 -104 81 -216 49 -244 85 -298 216 -317 38 -5 54 -12
54 -22 0 -18 -49 -18 -113 -1 -95 26 -145 103 -177 272 -38 204 -91 298 -222
396 -21 15 -40 31 -43 34 -9 11 -183 106 -272 149 -50 23 -88 48 -88 56 0 25
27 15 187 -66z m-679 8 c-3 -7 -28 -18 -57 -24 -182 -41 -334 -206 -456 -498
-74 -178 -90 -255 -90 -451 0 -138 5 -191 23 -279 22 -105 23 -136 3 -136 -10
0 -20 41 -47 185 -25 134 -23 342 6 470 75 336 274 636 479 721 61 25 146 33
139 12z m202 -29 c25 -48 76 -75 163 -85 41 -5 57 -11 57 -22 0 -23 -119 -10
-177 19 -49 26 -91 84 -80 112 9 25 14 21 37 -24z m470 -159 c55 -28 121 -101
162 -176 20 -38 60 -143 88 -234 86 -270 133 -349 239 -403 20 -10 54 -21 75
-25 57 -10 59 -32 3 -32 -57 0 -157 49 -196 97 -45 54 -86 138 -116 233 -76
248 -111 337 -162 412 -31 45 -105 97 -160 114 -52 15 -61 23 -46 38 11 10 71
-2 113 -24z m-580 9 c0 -6 -12 -25 -27 -43 -39 -47 -55 -93 -62 -181 -5 -62
-9 -80 -21 -80 -20 0 -22 91 -3 165 16 65 71 150 96 150 9 0 17 -5 17 -11z
m-212 -110 c1 -8 -14 -23 -35 -34 -47 -25 -108 -105 -129 -168 -22 -66 -31
-185 -23 -303 6 -78 15 -120 44 -199 42 -114 44 -126 28 -132 -15 -5 -28 20
-64 122 -35 104 -49 185 -49 300 0 199 61 339 180 419 27 18 44 17 48 -5z
m-552 -40 c-10 -65 -47 -116 -159 -224 -142 -137 -211 -260 -232 -413 -5 -37
-11 -52 -22 -52 -13 0 -15 10 -9 66 15 147 83 269 238 425 109 109 148 164
148 206 0 23 8 33 28 33 11 0 13 -9 8 -41z m1225 -56 c53 -45 60 -53 105 -122
96 -145 143 -377 144 -703 0 -143 -2 -168 -15 -168 -12 0 -15 16 -15 83 0 138
-19 395 -36 476 -24 117 -69 236 -115 303 -38 56 -56 75 -121 127 -12 10 -18
23 -14 29 11 18 19 15 67 -25z m-241 12 c0 -9 -27 -28 -62 -45 -78 -38 -96
-55 -104 -96 -8 -43 -34 -46 -34 -4 0 54 25 86 87 115 32 14 65 30 73 35 23
14 40 12 40 -5z m85 -204 c52 -23 88 -66 113 -133 22 -60 42 -192 31 -209 -14
-23 -27 2 -34 63 -17 150 -69 241 -143 253 -55 10 -62 13 -62 30 0 21 45 19
95 -4z m-428 -138 c7 -102 17 -164 31 -200 19 -51 17 -79 -5 -65 -33 21 -61
162 -63 317 -2 100 -2 95 13 95 10 0 16 -38 24 -147z m1435 128 c42 -33 80
-117 86 -187 4 -55 2 -64 -12 -64 -12 0 -16 9 -16 35 0 52 -39 144 -76 181
-19 18 -34 37 -34 43 0 17 25 13 52 -8z m-1218 -181 c17 -129 -34 -300 -113
-379 -38 -38 -107 -81 -131 -81 -17 0 -11 30 8 37 41 16 104 67 130 106 47 68
64 131 69 255 4 80 9 112 18 112 7 0 15 -20 19 -50z m180 34 c3 -9 6 -51 6
-95 0 -64 -3 -79 -15 -79 -10 0 -15 10 -15 28 0 15 -3 57 -7 95 -5 56 -3 67 9
67 9 0 19 -7 22 -16z m-1122 -223 c-4 -51 -28 -87 -95 -141 -34 -28 -85 -70
-114 -93 -56 -45 -103 -122 -103 -169 0 -18 -5 -28 -15 -28 -21 0 -19 65 4
115 23 51 69 99 153 158 84 60 124 106 138 158 13 48 36 48 32 0z m1026 -121
c-8 -104 -46 -149 -130 -153 -32 -2 -43 2 -43 13 0 9 11 16 25 18 87 11 110
37 110 126 0 56 4 66 28 66 12 0 14 -13 10 -70z m208 15 c11 -17 19 -61 24
-133 9 -123 22 -160 59 -168 46 -10 53 -14 49 -27 -7 -19 -56 -20 -83 -3 -37
25 -45 47 -60 179 -8 67 -18 134 -21 150 -8 34 10 36 32 2z m-88 -92 c-4 -69
-10 -93 -41 -155 -44 -91 -117 -165 -204 -209 -58 -30 -75 -33 -147 -34 -65 0
-81 3 -81 15 0 10 8 14 25 12 48 -6 152 19 205 49 71 40 140 116 177 195 25
54 30 77 31 142 0 88 3 98 24 80 12 -10 14 -29 11 -95z m681 53 c21 -14 54
-46 74 -73 46 -62 85 -99 120 -112 26 -10 39 -41 17 -41 -36 0 -85 37 -145
110 -47 56 -80 86 -106 97 -38 15 -46 23 -32 36 12 12 33 7 72 -17z m-165 -27
c3 -17 6 -67 6 -111 0 -138 33 -220 99 -248 34 -14 42 -40 13 -40 -39 0 -99
56 -120 112 -27 73 -42 318 -19 318 8 0 17 -13 21 -31z m-2179 -143 c19 -8 35
-22 35 -30 0 -19 -10 -20 -44 -5 -42 20 -72 4 -91 -46 -20 -52 -16 -96 15
-160 25 -51 49 -63 84 -40 34 22 45 1 15 -31 -31 -33 -59 -30 -97 9 -81 84
-83 264 -2 304 32 16 43 16 85 -1z m590 -76 c7 -11 -71 -130 -85 -130 -19 0
-9 31 26 85 37 55 48 63 59 45z m-105 -26 c0 -33 -55 -108 -71 -98 -14 8 -11
17 21 67 30 48 50 60 50 31z m180 -1 c0 -22 -79 -125 -91 -118 -15 10 -10 25
29 81 37 54 62 69 62 37z m70 -25 c0 -16 -71 -118 -82 -118 -23 0 -16 34 18
79 36 48 64 65 64 39z m-702 -16 c2 -7 -6 -16 -17 -19 -29 -7 -24 -44 7 -58
27 -12 25 -41 -3 -37 -55 10 -82 76 -48 114 19 21 54 21 61 0z m772 -8 c0 -23
-61 -114 -77 -114 -21 0 -15 22 22 78 36 53 55 65 55 36z m56 -18 c6 -15 -16
-55 -48 -90 -10 -11 -18 -23 -18 -27 0 -7 51 -23 54 -17 36 82 67 120 84 104
8 -9 -39 -97 -57 -104 -9 -4 -7 -8 10 -17 21 -12 24 -10 50 46 17 35 35 59 44
59 8 0 15 -6 15 -14 0 -21 -50 -106 -62 -106 -6 0 5 -12 25 -27 36 -28 49 -63
24 -63 -8 0 -22 9 -33 21 -10 12 -31 27 -46 35 -27 14 -28 14 -28 -11 0 -15
-11 -37 -26 -52 l-26 -26 24 7 c63 18 78 19 78 3 0 -23 -59 -42 -130 -42 -44
1 -92 10 -147 29 -88 29 -96 35 -84 54 6 9 24 6 75 -13 l68 -26 -21 27 c-13
17 -21 41 -21 67 l0 40 -42 -7 c-23 -4 -62 -16 -87 -27 -34 -15 -46 -17 -52
-7 -12 18 -4 25 59 48 41 16 81 23 144 24 47 0 84 4 82 8 -3 4 11 28 31 53 19
26 35 51 35 56 0 14 20 11 26 -5z m184 -96 c0 -32 -31 -100 -46 -100 -18 0
-18 12 3 71 18 49 43 66 43 29z m860 -87 c0 -39 -17 -76 -31 -68 -10 7 -13 98
-3 108 15 15 34 -8 34 -40z m-136 21 c9 -24 7 -92 -3 -98 -5 -3 -13 0 -18 7
-11 14 -16 83 -8 97 9 15 22 12 29 -6z m66 -39 c0 -40 -4 -55 -14 -55 -9 0
-15 15 -18 43 -5 50 -1 67 18 67 10 0 14 -15 14 -55z m135 -6 c0 -41 -4 -54
-15 -54 -11 0 -15 12 -17 45 -2 55 3 73 20 67 7 -2 12 -23 12 -58z m-263 6 c5
-22 6 -45 4 -52 -3 -8 8 -14 32 -18 91 -16 242 -83 242 -107 0 -21 -31 -16
-76 11 -27 17 -61 33 -76 37 -26 6 -28 4 -28 -24 0 -39 -34 -78 -80 -91 -30
-9 -23 -10 40 -7 41 2 86 7 99 11 19 7 22 5 19 -11 -4 -25 -80 -47 -142 -40
-78 9 -186 68 -186 103 0 20 21 16 49 -9 l25 -23 -17 27 c-9 15 -17 34 -17 43
0 19 -4 19 -41 0 -27 -14 -30 -14 -35 0 -8 19 17 39 67 54 l36 11 -5 56 c-4
51 -3 56 14 52 16 -3 19 -12 18 -51 0 -44 1 -47 25 -47 19 0 22 3 13 12 -16
16 -16 111 0 106 7 -3 16 -22 20 -43z m-114 -35 c3 -36 0 -41 -15 -38 -27 6
-74 -19 -109 -59 -34 -37 -88 -183 -100 -265 -4 -34 -11 -48 -22 -48 -35 0 17
228 73 311 29 45 85 90 114 92 16 1 21 8 21 27 0 60 35 42 38 -20z m-385 -170
c-2 -46 -10 -110 -18 -144 -22 -85 -70 -186 -89 -186 -22 0 -20 8 13 81 33 70
61 193 61 263 0 53 8 78 24 73 7 -3 10 -33 9 -87z m-258 -340 c4 -6 -9 -29
-29 -50 -43 -48 -45 -70 -7 -112 l28 -32 59 11 c70 13 103 4 151 -37 31 -27
40 -31 67 -24 17 4 62 8 99 8 56 1 71 5 83 20 16 23 18 42 4 51 -12 7 -14 45
-2 45 30 -1 56 -58 42 -94 -16 -43 -53 -60 -114 -52 -38 4 -65 1 -90 -9 -31
-13 -40 -13 -68 -1 -18 7 -46 25 -61 40 -29 27 -53 31 -123 17 -47 -9 -79 1
-106 31 -41 47 -35 114 14 165 34 35 43 39 53 23z m277 -110 c13 -12 29 -18
40 -14 26 8 42 -4 27 -22 -25 -31 -109 2 -109 43 0 19 18 16 42 -7z m-468
-269 c69 -37 75 -38 199 -45 70 -3 149 -11 175 -16 75 -15 103 -20 174 -26 63
-6 71 -5 109 20 28 19 45 24 51 18 14 -14 6 -24 -44 -58 -24 -15 -72 -58 -108
-95 -87 -88 -136 -113 -220 -113 -49 -1 -78 6 -120 25 -66 31 -102 68 -173
174 -38 57 -65 87 -95 103 -39 22 -57 52 -30 52 6 0 43 -17 82 -39z"/>
<path d="M1865 1811 c-9 -16 3 -62 22 -83 20 -22 76 -23 97 -2 20 19 21 58 2
73 -21 17 -112 26 -121 12z"/>
<path d="M2812 1653 c-20 -4 -23 -9 -17 -31 9 -40 39 -65 74 -64 39 1 50 8 62
39 15 41 -4 63 -54 62 -23 -1 -53 -4 -65 -6z"/>
<path d="M2012 723 c77 -114 132 -152 229 -160 70 -7 125 16 184 77 l39 40
-94 0 c-101 0 -205 21 -322 63 l-67 24 31 -44z"/>
<path d="M2122 754 c13 -13 198 -44 258 -43 57 1 61 2 30 10 -130 31 -306 52
-288 33z"/>
<path d="M3130 1170 c0 -6 -11 -36 -25 -66 -14 -30 -25 -58 -25 -63 0 -11 -87
-141 -145 -216 -26 -33 -55 -71 -65 -85 -10 -14 -35 -47 -54 -73 l-37 -48 -3
-232 c-4 -223 -7 -255 -41 -364 l-7 -23 686 0 686 0 0 395 0 394 -81 25 c-79
25 -178 46 -394 86 -117 22 -238 72 -304 127 -19 15 -64 53 -101 84 -81 68
-90 73 -90 59z"/>
<path d="M1029 1085 c-261 -68 -361 -116 -554 -266 -111 -86 -209 -142 -340
-194 l-130 -52 -3 -286 -2 -287 604 0 603 0 -14 60 c-24 104 -31 266 -22 495
10 255 19 327 60 467 16 57 29 106 29 110 0 12 -9 10 -231 -47z"/>
<path d="M1271 1043 c-42 -149 -52 -225 -63 -491 -12 -279 -7 -391 24 -507
l12 -45 722 0 722 0 16 48 c34 106 51 275 41 418 l-7 104 -46 -52 c-223 -249
-308 -295 -527 -286 -122 6 -186 25 -265 79 -108 76 -262 248 -441 494 -110
151 -138 195 -159 247 l-16 38 -13 -47z"/>
</g>
</svg>
